<?xml version="1.0" standalone="no"?>
<!DOCTYPE svg PUBLIC "-//W3C//DTD SVG 1.1//EN" "http://www.w3.org/Graphics/SVG/1.1/DTD/svg11.dtd">
<svg version="1.1" width="1200" height="566" onload="init(evt)" viewBox="0 0 1200 566" xmlns="http://www.w3.org/2000/svg" xmlns:xlink="http://www.w3.org/1999/xlink">
<!-- Flame graph stack visualization. See https://github.com/brendangregg/FlameGraph for latest version, and http://www.brendangregg.com/flamegraphs.html for examples. -->
<!-- NOTES:  -->
<defs>
	<linearGradient id="background" y1="0" y2="1" x1="0" x2="0" >
		<stop stop-color="#eeeeee" offset="5%" />
		<stop stop-color="#eeeeb0" offset="95%" />
	</linearGradient>
</defs>
<style type="text/css">
	text { font-family:Verdana; font-size:12px; fill:rgb(0,0,0); }
	#search, #ignorecase { opacity:0.1; cursor:pointer; }
	#search:hover, #search.show, #ignorecase:hover, #ignorecase.show { opacity:1; }
	#subtitle { text-anchor:middle; font-color:rgb(160,160,160); }
	#title { text-anchor:middle; font-size:17px}
	#unzoom { cursor:pointer; }
	#frames > *:hover { stroke:black; stroke-width:0.5; cursor:pointer; }
	.hide { display:none; }
	.parent { opacity:0.5; }
</style>
<script type="text/ecmascript">
<![CDATA[
	"use strict";
	var details, searchbtn, unzoombtn, matchedtxt, svg, searching, currentSearchTerm, ignorecase, ignorecaseBtn;
	function init(evt) {
		details = document.getElementById("details").firstChild;
		searchbtn = document.getElementById("search");
		ignorecaseBtn = document.getElementById("ignorecase");
		unzoombtn = document.getElementById("unzoom");
		matchedtxt = document.getElementById("matched");
		svg = document.getElementsByTagName("svg")[0];
		searching = 0;
		currentSearchTerm = null;

		// use GET parameters to restore a flamegraphs state.
		var params = get_params();
		if (params.x && params.y)
			zoom(find_group(document.querySelector('[x="' + params.x + '"][y="' + params.y + '"]')));
                if (params.s) search(params.s);
	}

	// event listeners
	window.addEventListener("click", function(e) {
		var target = find_group(e.target);
		if (target) {
			if (target.nodeName == "a") {
				if (e.ctrlKey === false) return;
				e.preventDefault();
			}
			if (target.classList.contains("parent")) unzoom(true);
			zoom(target);
			if (!document.querySelector('.parent')) {
				// we have basically done a clearzoom so clear the url
				var params = get_params();
				if (params.x) delete params.x;
				if (params.y) delete params.y;
				history.replaceState(null, null, parse_params(params));
				unzoombtn.classList.add("hide");
				return;
			}

			// set parameters for zoom state
			var el = target.querySelector("rect");
			if (el && el.attributes && el.attributes.y && el.attributes._orig_x) {
				var params = get_params()
				params.x = el.attributes._orig_x.value;
				params.y = el.attributes.y.value;
				history.replaceState(null, null, parse_params(params));
			}
		}
		else if (e.target.id == "unzoom") clearzoom();
		else if (e.target.id == "search") search_prompt();
		else if (e.target.id == "ignorecase") toggle_ignorecase();
	}, false)

	// mouse-over for info
	// show
	window.addEventListener("mouseover", function(e) {
		var target = find_group(e.target);
		if (target) details.nodeValue = "Function: " + g_to_text(target);
	}, false)

	// clear
	window.addEventListener("mouseout", function(e) {
		var target = find_group(e.target);
		if (target) details.nodeValue = ' ';
	}, false)

	// ctrl-F for search
	// ctrl-I to toggle case-sensitive search
	window.addEventListener("keydown",function (e) {
		if (e.keyCode === 114 || (e.ctrlKey && e.keyCode === 70)) {
			e.preventDefault();
			search_prompt();
		}
		else if (e.ctrlKey && e.keyCode === 73) {
			e.preventDefault();
			toggle_ignorecase();
		}
	}, false)

	// functions
	function get_params() {
		var params = {};
		var paramsarr = window.location.search.substr(1).split('&');
		for (var i = 0; i < paramsarr.length; ++i) {
			var tmp = paramsarr[i].split("=");
			if (!tmp[0] || !tmp[1]) continue;
			params[tmp[0]]  = decodeURIComponent(tmp[1]);
		}
		return params;
	}
	function parse_params(params) {
		var uri = "?";
		for (var key in params) {
			uri += key + '=' + encodeURIComponent(params[key]) + '&';
		}
		if (uri.slice(-1) == "&")
			uri = uri.substring(0, uri.length - 1);
		if (uri == '?')
			uri = window.location.href.split('?')[0];
		return uri;
	}
	function find_child(node, selector) {
		var children = node.querySelectorAll(selector);
		if (children.length) return children[0];
	}
	function find_group(node) {
		var parent = node.parentElement;
		if (!parent) return;
		if (parent.id == "frames") return node;
		return find_group(parent);
	}
	function orig_save(e, attr, val) {
		if (e.attributes["_orig_" + attr] != undefined) return;
		if (e.attributes[attr] == undefined) return;
		if (val == undefined) val = e.attributes[attr].value;
		e.setAttribute("_orig_" + attr, val);
	}
	function orig_load(e, attr) {
		if (e.attributes["_orig_"+attr] == undefined) return;
		e.attributes[attr].value = e.attributes["_orig_" + attr].value;
		e.removeAttribute("_orig_"+attr);
	}
	function g_to_text(e) {
		var text = find_child(e, "title").firstChild.nodeValue;
		return (text)
	}
	function g_to_func(e) {
		var func = g_to_text(e);
		// if there's any manipulation we want to do to the function
		// name before it's searched, do it here before returning.
		return (func);
	}
	function update_text(e) {
		var r = find_child(e, "rect");
		var t = find_child(e, "text");
		var w = parseFloat(r.attributes.width.value) -3;
		var txt = find_child(e, "title").textContent.replace(/\([^(]*\)$/,"");
		t.attributes.x.value = parseFloat(r.attributes.x.value) + 3;

		// Smaller than this size won't fit anything
		if (w < 2 * 12 * 0.59) {
			t.textContent = "";
			return;
		}

		t.textContent = txt;
		var sl = t.getSubStringLength(0, txt.length);
		// check if only whitespace or if we can fit the entire string into width w
		if (/^ *$/.test(txt) || sl < w)
			return;

		// this isn't perfect, but gives a good starting point
		// and avoids calling getSubStringLength too often
		var start = Math.floor((w/sl) * txt.length);
		for (var x = start; x > 0; x = x-2) {
			if (t.getSubStringLength(0, x + 2) <= w) {
				t.textContent = txt.substring(0, x) + "..";
				return;
			}
		}
		t.textContent = "";
	}

	// zoom
	function zoom_reset(e) {
		if (e.attributes != undefined) {
			orig_load(e, "x");
			orig_load(e, "width");
		}
		if (e.childNodes == undefined) return;
		for (var i = 0, c = e.childNodes; i < c.length; i++) {
			zoom_reset(c[i]);
		}
	}
	function zoom_child(e, x, ratio) {
		if (e.attributes != undefined) {
			if (e.attributes.x != undefined) {
				orig_save(e, "x");
				e.attributes.x.value = (parseFloat(e.attributes.x.value) - x - 10) * ratio + 10;
				if (e.tagName == "text")
					e.attributes.x.value = find_child(e.parentNode, "rect[x]").attributes.x.value + 3;
			}
			if (e.attributes.width != undefined) {
				orig_save(e, "width");
				e.attributes.width.value = parseFloat(e.attributes.width.value) * ratio;
			}
		}

		if (e.childNodes == undefined) return;
		for (var i = 0, c = e.childNodes; i < c.length; i++) {
			zoom_child(c[i], x - 10, ratio);
		}
	}
	function zoom_parent(e) {
		if (e.attributes) {
			if (e.attributes.x != undefined) {
				orig_save(e, "x");
				e.attributes.x.value = 10;
			}
			if (e.attributes.width != undefined) {
				orig_save(e, "width");
				e.attributes.width.value = parseInt(svg.width.baseVal.value) - (10 * 2);
			}
		}
		if (e.childNodes == undefined) return;
		for (var i = 0, c = e.childNodes; i < c.length; i++) {
			zoom_parent(c[i]);
		}
	}
	function zoom(node) {
		var attr = find_child(node, "rect").attributes;
		var width = parseFloat(attr.width.value);
		var xmin = parseFloat(attr.x.value);
		var xmax = parseFloat(xmin + width);
		var ymin = parseFloat(attr.y.value);
		var ratio = (svg.width.baseVal.value - 2 * 10) / width;

		// XXX: Workaround for JavaScript float issues (fix me)
		var fudge = 0.0001;

		unzoombtn.classList.remove("hide");

		var el = document.getElementById("frames").children;
		for (var i = 0; i < el.length; i++) {
			var e = el[i];
			var a = find_child(e, "rect").attributes;
			var ex = parseFloat(a.x.value);
			var ew = parseFloat(a.width.value);
			var upstack;
			// Is it an ancestor
			if (0 == 0) {
				upstack = parseFloat(a.y.value) > ymin;
			} else {
				upstack = parseFloat(a.y.value) < ymin;
			}
			if (upstack) {
				// Direct ancestor
				if (ex <= xmin && (ex+ew+fudge) >= xmax) {
					e.classList.add("parent");
					zoom_parent(e);
					update_text(e);
				}
				// not in current path
				else
					e.classList.add("hide");
			}
			// Children maybe
			else {
				// no common path
				if (ex < xmin || ex + fudge >= xmax) {
					e.classList.add("hide");
				}
				else {
					zoom_child(e, xmin, ratio);
					update_text(e);
				}
			}
		}
		search();
	}
	function unzoom(dont_update_text) {
		unzoombtn.classList.add("hide");
		var el = document.getElementById("frames").children;
		for(var i = 0; i < el.length; i++) {
			el[i].classList.remove("parent");
			el[i].classList.remove("hide");
			zoom_reset(el[i]);
			if(!dont_update_text) update_text(el[i]);
		}
		search();
	}
	function clearzoom() {
		unzoom();

		// remove zoom state
		var params = get_params();
		if (params.x) delete params.x;
		if (params.y) delete params.y;
		history.replaceState(null, null, parse_params(params));
	}

	// search
	function toggle_ignorecase() {
		ignorecase = !ignorecase;
		if (ignorecase) {
			ignorecaseBtn.classList.add("show");
		} else {
			ignorecaseBtn.classList.remove("show");
		}
		reset_search();
		search();
	}
	function reset_search() {
		var el = document.querySelectorAll("#frames rect");
		for (var i = 0; i < el.length; i++) {
			orig_load(el[i], "fill")
		}
		var params = get_params();
		delete params.s;
		history.replaceState(null, null, parse_params(params));
	}
	function search_prompt() {
		if (!searching) {
			var term = prompt("Enter a search term (regexp " +
			    "allowed, eg: ^ext4_)"
			    + (ignorecase ? ", ignoring case" : "")
			    + "\nPress Ctrl-i to toggle case sensitivity", "");
			if (term != null) search(term);
		} else {
			reset_search();
			searching = 0;
			currentSearchTerm = null;
			searchbtn.classList.remove("show");
			searchbtn.firstChild.nodeValue = "Search"
			matchedtxt.classList.add("hide");
			matchedtxt.firstChild.nodeValue = ""
		}
	}
	function search(term) {
		if (term) currentSearchTerm = term;
		if (currentSearchTerm === null) return;

		var re = new RegExp(currentSearchTerm, ignorecase ? 'i' : '');
		var el = document.getElementById("frames").children;
		var matches = new Object();
		var maxwidth = 0;
		for (var i = 0; i < el.length; i++) {
			var e = el[i];
			var func = g_to_func(e);
			var rect = find_child(e, "rect");
			if (func == null || rect == null)
				continue;

			// Save max width. Only works as we have a root frame
			var w = parseFloat(rect.attributes.width.value);
			if (w > maxwidth)
				maxwidth = w;

			if (func.match(re)) {
				// highlight
				var x = parseFloat(rect.attributes.x.value);
				orig_save(rect, "fill");
				rect.attributes.fill.value = "rgb(230,0,230)";

				// remember matches
				if (matches[x] == undefined) {
					matches[x] = w;
				} else {
					if (w > matches[x]) {
						// overwrite with parent
						matches[x] = w;
					}
				}
				searching = 1;
			}
		}
		if (!searching)
			return;
		var params = get_params();
		params.s = currentSearchTerm;
		history.replaceState(null, null, parse_params(params));

		searchbtn.classList.add("show");
		searchbtn.firstChild.nodeValue = "Reset Search";

		// calculate percent matched, excluding vertical overlap
		var count = 0;
		var lastx = -1;
		var lastw = 0;
		var keys = Array();
		for (k in matches) {
			if (matches.hasOwnProperty(k))
				keys.push(k);
		}
		// sort the matched frames by their x location
		// ascending, then width descending
		keys.sort(function(a, b){
			return a - b;
		});
		// Step through frames saving only the biggest bottom-up frames
		// thanks to the sort order. This relies on the tree property
		// where children are always smaller than their parents.
		var fudge = 0.0001;	// JavaScript floating point
		for (var k in keys) {
			var x = parseFloat(keys[k]);
			var w = matches[keys[k]];
			if (x >= lastx + lastw - fudge) {
				count += w;
				lastx = x;
				lastw = w;
			}
		}
		// display matched percent
		matchedtxt.classList.remove("hide");
		var pct = 100 * count / maxwidth;
		if (pct != 100) pct = pct.toFixed(1)
		matchedtxt.firstChild.nodeValue = "Matched: " + pct + "%";
	}
]]>
</script>
<rect x="0.0" y="0" width="1200.0" height="566.0" fill="url(#background)"  />
<text id="title" x="600.00" y="24" >Flame Graph</text>
<text id="details" x="10.00" y="549" > </text>
<text id="unzoom" x="10.00" y="24" class="hide">Reset Zoom</text>
<text id="search" x="1090.00" y="24" >Search</text>
<text id="ignorecase" x="1174.00" y="24" >ic</text>
<text id="matched" x="1090.00" y="549" > </text>
<g id="frames">
<g >
<title>perf_event_mmap (272,307 samples, 0.02%)</title><rect x="1188.9" y="133" width="0.2" height="15.0" fill="rgb(229,112,26)" rx="2" ry="2" />
<text  x="1191.91" y="143.5" ></text>
</g>
<g >
<title>eth_type_trans (653,581 samples, 0.04%)</title><rect x="1187.3" y="117" width="0.5" height="15.0" fill="rgb(239,159,38)" rx="2" ry="2" />
<text  x="1190.27" y="127.5" ></text>
</g>
<g >
<title>_dl_catch_exception (465,328 samples, 0.03%)</title><rect x="1188.8" y="405" width="0.3" height="15.0" fill="rgb(253,223,53)" rx="2" ry="2" />
<text  x="1191.76" y="415.5" ></text>
</g>
<g >
<title>mmap_region (272,307 samples, 0.02%)</title><rect x="1188.9" y="165" width="0.2" height="15.0" fill="rgb(231,121,28)" rx="2" ry="2" />
<text  x="1191.91" y="175.5" ></text>
</g>
<g >
<title>compute_congestion_pressure (537,377,945 samples, 35.61%)</title><rect x="10.6" y="421" width="420.2" height="15.0" fill="rgb(218,61,14)" rx="2" ry="2" />
<text  x="13.60" y="431.5" >compute_congestion_pressure</text>
</g>
<g >
<title>el0t_64_sync_handler (652,458 samples, 0.04%)</title><rect x="429.8" y="373" width="0.5" height="15.0" fill="rgb(211,32,7)" rx="2" ry="2" />
<text  x="432.75" y="383.5" ></text>
</g>
<g >
<title>_dl_call_fini (636,020 samples, 0.04%)</title><rect x="10.1" y="389" width="0.5" height="15.0" fill="rgb(241,166,39)" rx="2" ry="2" />
<text  x="13.10" y="399.5" ></text>
</g>
<g >
<title>copy_user_highpage (325,032 samples, 0.02%)</title><rect x="1189.7" y="229" width="0.3" height="15.0" fill="rgb(231,122,29)" rx="2" ry="2" />
<text  x="1192.74" y="239.5" ></text>
</g>
<g >
<title>do_softirq_own_stack (655,041 samples, 0.04%)</title><rect x="430.3" y="309" width="0.5" height="15.0" fill="rgb(250,209,50)" rx="2" ry="2" />
<text  x="433.26" y="319.5" ></text>
</g>
<g >
<title>do_execveat_common.isra.0 (130,118 samples, 0.01%)</title><rect x="10.0" y="357" width="0.1" height="15.0" fill="rgb(231,123,29)" rx="2" ry="2" />
<text  x="13.00" y="367.5" ></text>
</g>
<g >
<title>el0t_64_sync_handler (193,021 samples, 0.01%)</title><rect x="1188.8" y="293" width="0.1" height="15.0" fill="rgb(211,32,7)" rx="2" ry="2" />
<text  x="1191.76" y="303.5" ></text>
</g>
<g >
<title>el0_svc (193,021 samples, 0.01%)</title><rect x="1188.8" y="277" width="0.1" height="15.0" fill="rgb(244,183,43)" rx="2" ry="2" />
<text  x="1191.76" y="287.5" ></text>
</g>
<g >
<title>handle_mm_fault (456,187 samples, 0.03%)</title><rect x="431.2" y="213" width="0.3" height="15.0" fill="rgb(234,135,32)" rx="2" ry="2" />
<text  x="434.15" y="223.5" ></text>
</g>
<g >
<title>__arm64_sys_execve (130,118 samples, 0.01%)</title><rect x="10.0" y="373" width="0.1" height="15.0" fill="rgb(205,0,0)" rx="2" ry="2" />
<text  x="13.00" y="383.5" ></text>
</g>
<g >
<title>_dl_map_object_deps (465,328 samples, 0.03%)</title><rect x="1188.8" y="421" width="0.3" height="15.0" fill="rgb(219,68,16)" rx="2" ry="2" />
<text  x="1191.76" y="431.5" ></text>
</g>
<g >
<title>folio_alloc_mpol_noprof (652,458 samples, 0.04%)</title><rect x="429.8" y="181" width="0.5" height="15.0" fill="rgb(219,64,15)" rx="2" ry="2" />
<text  x="432.75" y="191.5" ></text>
</g>
<g >
<title>do_mem_abort (652,458 samples, 0.04%)</title><rect x="429.8" y="341" width="0.5" height="15.0" fill="rgb(249,206,49)" rx="2" ry="2" />
<text  x="432.75" y="351.5" ></text>
</g>
<g >
<title>__folio_batch_add_and_move (456,187 samples, 0.03%)</title><rect x="431.2" y="117" width="0.3" height="15.0" fill="rgb(254,227,54)" rx="2" ry="2" />
<text  x="434.15" y="127.5" ></text>
</g>
<g >
<title>el0_svc_common.constprop.0 (130,118 samples, 0.01%)</title><rect x="10.0" y="405" width="0.1" height="15.0" fill="rgb(224,89,21)" rx="2" ry="2" />
<text  x="13.00" y="415.5" ></text>
</g>
<g >
<title>__el0_irq_handler_common (655,041 samples, 0.04%)</title><rect x="430.3" y="373" width="0.5" height="15.0" fill="rgb(206,5,1)" rx="2" ry="2" />
<text  x="433.26" y="383.5" ></text>
</g>
<g >
<title>ksys_mmap_pgoff (272,307 samples, 0.02%)</title><rect x="1188.9" y="213" width="0.2" height="15.0" fill="rgb(245,185,44)" rx="2" ry="2" />
<text  x="1191.91" y="223.5" ></text>
</g>
<g >
<title>_start (1,509,011,892 samples, 99.99%)</title><rect x="10.1" y="485" width="1179.9" height="15.0" fill="rgb(245,185,44)" rx="2" ry="2" />
<text  x="13.10" y="495.5" >_start</text>
</g>
<g >
<title>do_notify_resume (591,717 samples, 0.04%)</title><rect x="1187.8" y="325" width="0.4" height="15.0" fill="rgb(233,129,30)" rx="2" ry="2" />
<text  x="1190.78" y="335.5" ></text>
</g>
<g >
<title>handle_pte_fault (325,032 samples, 0.02%)</title><rect x="1189.7" y="293" width="0.3" height="15.0" fill="rgb(217,57,13)" rx="2" ry="2" />
<text  x="1192.74" y="303.5" ></text>
</g>
<g >
<title>__pi_copy_page (325,032 samples, 0.02%)</title><rect x="1189.7" y="213" width="0.3" height="15.0" fill="rgb(227,102,24)" rx="2" ry="2" />
<text  x="1192.74" y="223.5" ></text>
</g>
<g >
<title>el0t_64_irq (655,041 samples, 0.04%)</title><rect x="430.3" y="405" width="0.5" height="15.0" fill="rgb(247,194,46)" rx="2" ry="2" />
<text  x="433.26" y="415.5" ></text>
</g>
<g >
<title>shortest_path_bfs (966,645,277 samples, 64.05%)</title><rect x="432.4" y="405" width="755.8" height="15.0" fill="rgb(217,58,14)" rx="2" ry="2" />
<text  x="435.42" y="415.5" >shortest_path_bfs</text>
</g>
<g >
<title>__arm64_sys_openat (193,021 samples, 0.01%)</title><rect x="1188.8" y="213" width="0.1" height="15.0" fill="rgb(209,22,5)" rx="2" ry="2" />
<text  x="1191.76" y="223.5" ></text>
</g>
<g >
<title>el0_interrupt (591,717 samples, 0.04%)</title><rect x="1187.8" y="341" width="0.4" height="15.0" fill="rgb(247,195,46)" rx="2" ry="2" />
<text  x="1190.78" y="351.5" ></text>
</g>
<g >
<title>____do_softirq (655,041 samples, 0.04%)</title><rect x="430.3" y="277" width="0.5" height="15.0" fill="rgb(219,65,15)" rx="2" ry="2" />
<text  x="433.26" y="287.5" ></text>
</g>
<g >
<title>generate_grid[abi:cxx11] (942,776 samples, 0.06%)</title><rect x="430.8" y="421" width="0.7" height="15.0" fill="rgb(253,224,53)" rx="2" ry="2" />
<text  x="433.77" y="431.5" ></text>
</g>
<g >
<title>net_rx_action (655,041 samples, 0.04%)</title><rect x="430.3" y="229" width="0.5" height="15.0" fill="rgb(240,164,39)" rx="2" ry="2" />
<text  x="433.26" y="239.5" ></text>
</g>
<g >
<title>do_softirq_own_stack (653,581 samples, 0.04%)</title><rect x="1187.3" y="277" width="0.5" height="15.0" fill="rgb(250,209,50)" rx="2" ry="2" />
<text  x="1190.27" y="287.5" ></text>
</g>
<g >
<title>do_page_fault (325,032 samples, 0.02%)</title><rect x="1189.7" y="341" width="0.3" height="15.0" fill="rgb(216,54,13)" rx="2" ry="2" />
<text  x="1192.74" y="351.5" ></text>
</g>
<g >
<title>el0_interrupt (653,581 samples, 0.04%)</title><rect x="1187.3" y="325" width="0.5" height="15.0" fill="rgb(247,195,46)" rx="2" ry="2" />
<text  x="1190.27" y="335.5" ></text>
</g>
<g >
<title>do_read_fault (636,020 samples, 0.04%)</title><rect x="10.1" y="165" width="0.5" height="15.0" fill="rgb(223,84,20)" rx="2" ry="2" />
<text  x="13.10" y="175.5" ></text>
</g>
<g >
<title>__wp_page_copy_user (325,032 samples, 0.02%)</title><rect x="1189.7" y="245" width="0.3" height="15.0" fill="rgb(235,140,33)" rx="2" ry="2" />
<text  x="1192.74" y="255.5" ></text>
</g>
<g >
<title>do_open (193,021 samples, 0.01%)</title><rect x="1188.8" y="149" width="0.1" height="15.0" fill="rgb(233,129,31)" rx="2" ry="2" />
<text  x="1191.76" y="159.5" ></text>
</g>
<g >
<title>el0t_64_irq_handler (591,717 samples, 0.04%)</title><rect x="1187.8" y="373" width="0.4" height="15.0" fill="rgb(241,169,40)" rx="2" ry="2" />
<text  x="1190.78" y="383.5" ></text>
</g>
<g >
<title>grid_bfs (1,509,142,010 samples, 100.00%)</title><rect x="10.0" y="501" width="1180.0" height="15.0" fill="rgb(238,156,37)" rx="2" ry="2" />
<text  x="13.00" y="511.5" >grid_bfs</text>
</g>
<g >
<title>__do_fault (636,020 samples, 0.04%)</title><rect x="10.1" y="149" width="0.5" height="15.0" fill="rgb(221,74,17)" rx="2" ry="2" />
<text  x="13.10" y="159.5" ></text>
</g>
<g >
<title>all (1,509,146,286 samples, 100%)</title><rect x="10.0" y="517" width="1180.0" height="15.0" fill="rgb(213,39,9)" rx="2" ry="2" />
<text  x="13.00" y="527.5" ></text>
</g>
<g >
<title>fsnotify_open_perm_and_set_mode (193,021 samples, 0.01%)</title><rect x="1188.8" y="101" width="0.1" height="15.0" fill="rgb(229,114,27)" rx="2" ry="2" />
<text  x="1191.76" y="111.5" ></text>
</g>
<g >
<title>mmap64 (272,307 samples, 0.02%)</title><rect x="1188.9" y="341" width="0.2" height="15.0" fill="rgb(220,70,16)" rx="2" ry="2" />
<text  x="1191.91" y="351.5" ></text>
</g>
<g >
<title>irq_exit_rcu (653,581 samples, 0.04%)</title><rect x="1187.3" y="309" width="0.5" height="15.0" fill="rgb(254,227,54)" rx="2" ry="2" />
<text  x="1190.27" y="319.5" ></text>
</g>
<g >
<title>folio_batch_move_lru (456,187 samples, 0.03%)</title><rect x="431.2" y="101" width="0.3" height="15.0" fill="rgb(207,10,2)" rx="2" ry="2" />
<text  x="434.15" y="111.5" ></text>
</g>
<g >
<title>operator new (456,187 samples, 0.03%)</title><rect x="431.2" y="405" width="0.3" height="15.0" fill="rgb(216,51,12)" rx="2" ry="2" />
<text  x="434.15" y="415.5" ></text>
</g>
<g >
<title>__libc_start_main@@GLIBC_2.34 (1,507,425,570 samples, 99.89%)</title><rect x="10.1" y="469" width="1178.7" height="15.0" fill="rgb(229,113,27)" rx="2" ry="2" />
<text  x="13.10" y="479.5" >__libc_start_main@@GLIBC_2.34</text>
</g>
<g >
<title>do_translation_fault (636,020 samples, 0.04%)</title><rect x="10.1" y="261" width="0.5" height="15.0" fill="rgb(239,158,37)" rx="2" ry="2" />
<text  x="13.10" y="271.5" ></text>
</g>
<g >
<title>__memset_zva64 (15,216,392 samples, 1.01%)</title><rect x="1175.9" y="389" width="11.9" height="15.0" fill="rgb(205,1,0)" rx="2" ry="2" />
<text  x="1178.88" y="399.5" ></text>
</g>
<g >
<title>el0t_64_irq_handler (655,041 samples, 0.04%)</title><rect x="430.3" y="389" width="0.5" height="15.0" fill="rgb(241,169,40)" rx="2" ry="2" />
<text  x="433.26" y="399.5" ></text>
</g>
<g >
<title>el0t_64_irq_handler (653,581 samples, 0.04%)</title><rect x="1187.3" y="357" width="0.5" height="15.0" fill="rgb(241,169,40)" rx="2" ry="2" />
<text  x="1190.27" y="367.5" ></text>
</g>
<g >
<title>_dl_map_object_from_fd (272,307 samples, 0.02%)</title><rect x="1188.9" y="357" width="0.2" height="15.0" fill="rgb(249,205,49)" rx="2" ry="2" />
<text  x="1191.91" y="367.5" ></text>
</g>
<g >
<title>_dl_relocate_object (1,120,994 samples, 0.07%)</title><rect x="1189.1" y="421" width="0.9" height="15.0" fill="rgb(231,120,28)" rx="2" ry="2" />
<text  x="1192.12" y="431.5" ></text>
</g>
<g >
<title>dl_main (1,586,322 samples, 0.11%)</title><rect x="1188.8" y="437" width="1.2" height="15.0" fill="rgb(236,145,34)" rx="2" ry="2" />
<text  x="1191.76" y="447.5" ></text>
</g>
<g >
<title>invoke_syscall (272,307 samples, 0.02%)</title><rect x="1188.9" y="245" width="0.2" height="15.0" fill="rgb(209,18,4)" rx="2" ry="2" />
<text  x="1191.91" y="255.5" ></text>
</g>
<g >
<title>__napi_poll (655,041 samples, 0.04%)</title><rect x="430.3" y="213" width="0.5" height="15.0" fill="rgb(247,195,46)" rx="2" ry="2" />
<text  x="433.26" y="223.5" ></text>
</g>
<g >
<title>alloc_pages_mpol (652,458 samples, 0.04%)</title><rect x="429.8" y="165" width="0.5" height="15.0" fill="rgb(254,227,54)" rx="2" ry="2" />
<text  x="432.75" y="175.5" ></text>
</g>
<g >
<title>el0_svc_common.constprop.0 (272,307 samples, 0.02%)</title><rect x="1188.9" y="261" width="0.2" height="15.0" fill="rgb(224,89,21)" rx="2" ry="2" />
<text  x="1191.91" y="271.5" ></text>
</g>
<g >
<title>main (1,506,789,550 samples, 99.84%)</title><rect x="10.6" y="437" width="1178.2" height="15.0" fill="rgb(243,179,42)" rx="2" ry="2" />
<text  x="13.60" y="447.5" >main</text>
</g>
<g >
<title>page_cache_ra_order (636,020 samples, 0.04%)</title><rect x="10.1" y="101" width="0.5" height="15.0" fill="rgb(223,83,20)" rx="2" ry="2" />
<text  x="13.10" y="111.5" ></text>
</g>
<g >
<title>__el0_irq_handler_common (653,581 samples, 0.04%)</title><rect x="1187.3" y="341" width="0.5" height="15.0" fill="rgb(206,5,1)" rx="2" ry="2" />
<text  x="1190.27" y="351.5" ></text>
</g>
<g >
<title>el0_da (652,458 samples, 0.04%)</title><rect x="429.8" y="357" width="0.5" height="15.0" fill="rgb(217,55,13)" rx="2" ry="2" />
<text  x="432.75" y="367.5" ></text>
</g>
<g >
<title>folio_add_lru (456,187 samples, 0.03%)</title><rect x="431.2" y="133" width="0.3" height="15.0" fill="rgb(208,17,4)" rx="2" ry="2" />
<text  x="434.15" y="143.5" ></text>
</g>
<g >
<title>__do_softirq (653,581 samples, 0.04%)</title><rect x="1187.3" y="229" width="0.5" height="15.0" fill="rgb(246,191,45)" rx="2" ry="2" />
<text  x="1190.27" y="239.5" ></text>
</g>
<g >
<title>do_page_fault (636,020 samples, 0.04%)</title><rect x="10.1" y="245" width="0.5" height="15.0" fill="rgb(216,54,13)" rx="2" ry="2" />
<text  x="13.10" y="255.5" ></text>
</g>
<g >
<title>el0_ia (636,020 samples, 0.04%)</title><rect x="10.1" y="293" width="0.5" height="15.0" fill="rgb(234,136,32)" rx="2" ry="2" />
<text  x="13.10" y="303.5" ></text>
</g>
<g >
<title>do_translation_fault (652,458 samples, 0.04%)</title><rect x="429.8" y="325" width="0.5" height="15.0" fill="rgb(239,158,37)" rx="2" ry="2" />
<text  x="432.75" y="335.5" ></text>
</g>
<g >
<title>__cond_resched (652,458 samples, 0.04%)</title><rect x="429.8" y="133" width="0.5" height="15.0" fill="rgb(217,58,14)" rx="2" ry="2" />
<text  x="432.75" y="143.5" ></text>
</g>
<g >
<title>el0t_64_sync (130,118 samples, 0.01%)</title><rect x="10.0" y="469" width="0.1" height="15.0" fill="rgb(217,56,13)" rx="2" ry="2" />
<text  x="13.00" y="479.5" ></text>
</g>
<g >
<title>[unknown] (130,118 samples, 0.01%)</title><rect x="10.0" y="485" width="0.1" height="15.0" fill="rgb(210,24,5)" rx="2" ry="2" />
<text  x="13.00" y="495.5" ></text>
</g>
<g >
<title>do_mem_abort (636,020 samples, 0.04%)</title><rect x="10.1" y="277" width="0.5" height="15.0" fill="rgb(249,206,49)" rx="2" ry="2" />
<text  x="13.10" y="287.5" ></text>
</g>
<g >
<title>do_anonymous_page (456,187 samples, 0.03%)</title><rect x="431.2" y="165" width="0.3" height="15.0" fill="rgb(238,155,37)" rx="2" ry="2" />
<text  x="434.15" y="175.5" ></text>
</g>
<g >
<title>folio_add_lru (636,020 samples, 0.04%)</title><rect x="10.1" y="69" width="0.5" height="15.0" fill="rgb(208,17,4)" rx="2" ry="2" />
<text  x="13.10" y="79.5" ></text>
</g>
<g >
<title>el0t_64_sync (325,032 samples, 0.02%)</title><rect x="1189.7" y="405" width="0.3" height="15.0" fill="rgb(217,56,13)" rx="2" ry="2" />
<text  x="1192.74" y="415.5" ></text>
</g>
<g >
<title>__mmap_region (272,307 samples, 0.02%)</title><rect x="1188.9" y="149" width="0.2" height="15.0" fill="rgb(253,225,53)" rx="2" ry="2" />
<text  x="1191.91" y="159.5" ></text>
</g>
<g >
<title>bprm_execve (130,118 samples, 0.01%)</title><rect x="10.0" y="341" width="0.1" height="15.0" fill="rgb(218,61,14)" rx="2" ry="2" />
<text  x="13.00" y="351.5" ></text>
</g>
<g >
<title>do_mem_abort (456,187 samples, 0.03%)</title><rect x="431.2" y="261" width="0.3" height="15.0" fill="rgb(249,206,49)" rx="2" ry="2" />
<text  x="434.15" y="271.5" ></text>
</g>
<g >
<title>perf_event_mmap_event (272,307 samples, 0.02%)</title><rect x="1188.9" y="117" width="0.2" height="15.0" fill="rgb(238,154,36)" rx="2" ry="2" />
<text  x="1191.91" y="127.5" ></text>
</g>
<g >
<title>perf_iterate_ctx (272,307 samples, 0.02%)</title><rect x="1188.9" y="85" width="0.2" height="15.0" fill="rgb(205,4,0)" rx="2" ry="2" />
<text  x="1191.91" y="95.5" ></text>
</g>
<g >
<title>handle_pte_fault (652,458 samples, 0.04%)</title><rect x="429.8" y="261" width="0.5" height="15.0" fill="rgb(217,57,13)" rx="2" ry="2" />
<text  x="432.75" y="271.5" ></text>
</g>
<g >
<title>__libc_start_call_main (1,507,425,570 samples, 99.89%)</title><rect x="10.1" y="453" width="1178.7" height="15.0" fill="rgb(210,26,6)" rx="2" ry="2" />
<text  x="13.10" y="463.5" >__libc_start_call_main</text>
</g>
<g >
<title>_dl_fini (636,020 samples, 0.04%)</title><rect x="10.1" y="405" width="0.5" height="15.0" fill="rgb(216,52,12)" rx="2" ry="2" />
<text  x="13.10" y="415.5" ></text>
</g>
<g >
<title>do_el0_svc (272,307 samples, 0.02%)</title><rect x="1188.9" y="277" width="0.2" height="15.0" fill="rgb(218,60,14)" rx="2" ry="2" />
<text  x="1191.91" y="287.5" ></text>
</g>
<g >
<title>el0t_64_sync (272,307 samples, 0.02%)</title><rect x="1188.9" y="325" width="0.2" height="15.0" fill="rgb(217,56,13)" rx="2" ry="2" />
<text  x="1191.91" y="335.5" ></text>
</g>
<g >
<title>do_mmap (272,307 samples, 0.02%)</title><rect x="1188.9" y="181" width="0.2" height="15.0" fill="rgb(228,107,25)" rx="2" ry="2" />
<text  x="1191.91" y="191.5" ></text>
</g>
<g >
<title>path_openat (193,021 samples, 0.01%)</title><rect x="1188.8" y="165" width="0.1" height="15.0" fill="rgb(249,202,48)" rx="2" ry="2" />
<text  x="1191.76" y="175.5" ></text>
</g>
<g >
<title>__napi_poll (653,581 samples, 0.04%)</title><rect x="1187.3" y="181" width="0.5" height="15.0" fill="rgb(247,195,46)" rx="2" ry="2" />
<text  x="1190.27" y="191.5" ></text>
</g>
<g >
<title>__do_softirq (655,041 samples, 0.04%)</title><rect x="430.3" y="261" width="0.5" height="15.0" fill="rgb(246,191,45)" rx="2" ry="2" />
<text  x="433.26" y="271.5" ></text>
</g>
<g >
<title>wp_page_copy (325,032 samples, 0.02%)</title><rect x="1189.7" y="261" width="0.3" height="15.0" fill="rgb(214,42,10)" rx="2" ry="2" />
<text  x="1192.74" y="271.5" ></text>
</g>
<g >
<title>_dl_map_object (465,328 samples, 0.03%)</title><rect x="1188.8" y="373" width="0.3" height="15.0" fill="rgb(248,199,47)" rx="2" ry="2" />
<text  x="1191.76" y="383.5" ></text>
</g>
<g >
<title>rcu_all_qs (652,458 samples, 0.04%)</title><rect x="429.8" y="117" width="0.5" height="15.0" fill="rgb(209,21,5)" rx="2" ry="2" />
<text  x="432.75" y="127.5" ></text>
</g>
<g >
<title>do_el0_svc (193,021 samples, 0.01%)</title><rect x="1188.8" y="261" width="0.1" height="15.0" fill="rgb(218,60,14)" rx="2" ry="2" />
<text  x="1191.76" y="271.5" ></text>
</g>
<g >
<title>sysmalloc (456,187 samples, 0.03%)</title><rect x="431.2" y="357" width="0.3" height="15.0" fill="rgb(213,38,9)" rx="2" ry="2" />
<text  x="434.15" y="367.5" ></text>
</g>
<g >
<title>filemap_fault (636,020 samples, 0.04%)</title><rect x="10.1" y="133" width="0.5" height="15.0" fill="rgb(219,68,16)" rx="2" ry="2" />
<text  x="13.10" y="143.5" ></text>
</g>
<g >
<title>ena_clean_rx_irq (653,581 samples, 0.04%)</title><rect x="1187.3" y="149" width="0.5" height="15.0" fill="rgb(249,205,49)" rx="2" ry="2" />
<text  x="1190.27" y="159.5" ></text>
</g>
<g >
<title>do_el0_svc (130,118 samples, 0.01%)</title><rect x="10.0" y="421" width="0.1" height="15.0" fill="rgb(218,60,14)" rx="2" ry="2" />
<text  x="13.00" y="431.5" ></text>
</g>
<g >
<title>do_page_fault (456,187 samples, 0.03%)</title><rect x="431.2" y="229" width="0.3" height="15.0" fill="rgb(216,54,13)" rx="2" ry="2" />
<text  x="434.15" y="239.5" ></text>
</g>
<g >
<title>__cxa_finalize (636,020 samples, 0.04%)</title><rect x="10.1" y="357" width="0.5" height="15.0" fill="rgb(240,162,38)" rx="2" ry="2" />
<text  x="13.10" y="367.5" ></text>
</g>
<g >
<title>do_sys_openat2 (193,021 samples, 0.01%)</title><rect x="1188.8" y="197" width="0.1" height="15.0" fill="rgb(253,221,52)" rx="2" ry="2" />
<text  x="1191.76" y="207.5" ></text>
</g>
<g >
<title>do_page_fault (652,458 samples, 0.04%)</title><rect x="429.8" y="309" width="0.5" height="15.0" fill="rgb(216,54,13)" rx="2" ry="2" />
<text  x="432.75" y="319.5" ></text>
</g>
<g >
<title>net_dim (655,041 samples, 0.04%)</title><rect x="430.3" y="197" width="0.5" height="15.0" fill="rgb(209,18,4)" rx="2" ry="2" />
<text  x="433.26" y="207.5" ></text>
</g>
<g >
<title>_dl_start (1,586,322 samples, 0.11%)</title><rect x="1188.8" y="469" width="1.2" height="15.0" fill="rgb(237,151,36)" rx="2" ry="2" />
<text  x="1191.76" y="479.5" ></text>
</g>
<g >
<title>el0t_64_irq (591,717 samples, 0.04%)</title><rect x="1187.8" y="389" width="0.4" height="15.0" fill="rgb(247,194,46)" rx="2" ry="2" />
<text  x="1190.78" y="399.5" ></text>
</g>
<g >
<title>__arm64_sys_mmap (272,307 samples, 0.02%)</title><rect x="1188.9" y="229" width="0.2" height="15.0" fill="rgb(231,119,28)" rx="2" ry="2" />
<text  x="1191.91" y="239.5" ></text>
</g>
<g >
<title>__irq_exit_rcu (655,041 samples, 0.04%)</title><rect x="430.3" y="325" width="0.5" height="15.0" fill="rgb(227,101,24)" rx="2" ry="2" />
<text  x="433.26" y="335.5" ></text>
</g>
<g >
<title>handle_softirqs (655,041 samples, 0.04%)</title><rect x="430.3" y="245" width="0.5" height="15.0" fill="rgb(238,156,37)" rx="2" ry="2" />
<text  x="433.26" y="255.5" ></text>
</g>
<g >
<title>__GI___open64_nocancel (193,021 samples, 0.01%)</title><rect x="1188.8" y="325" width="0.1" height="15.0" fill="rgb(218,63,15)" rx="2" ry="2" />
<text  x="1191.76" y="335.5" ></text>
</g>
<g >
<title>[libstdc++.so.6.0.33] (636,020 samples, 0.04%)</title><rect x="10.1" y="373" width="0.5" height="15.0" fill="rgb(216,51,12)" rx="2" ry="2" />
<text  x="13.10" y="383.5" ></text>
</g>
<g >
<title>handle_pte_fault (636,020 samples, 0.04%)</title><rect x="10.1" y="197" width="0.5" height="15.0" fill="rgb(217,57,13)" rx="2" ry="2" />
<text  x="13.10" y="207.5" ></text>
</g>
<g >
<title>call_on_irq_stack (653,581 samples, 0.04%)</title><rect x="1187.3" y="261" width="0.5" height="15.0" fill="rgb(239,156,37)" rx="2" ry="2" />
<text  x="1190.27" y="271.5" ></text>
</g>
<g >
<title>el0_da (456,187 samples, 0.03%)</title><rect x="431.2" y="277" width="0.3" height="15.0" fill="rgb(217,55,13)" rx="2" ry="2" />
<text  x="434.15" y="287.5" ></text>
</g>
<g >
<title>_dl_sysdep_read_whole_file (193,021 samples, 0.01%)</title><rect x="1188.8" y="341" width="0.1" height="15.0" fill="rgb(205,2,0)" rx="2" ry="2" />
<text  x="1191.76" y="351.5" ></text>
</g>
<g >
<title>el0t_64_sync (636,020 samples, 0.04%)</title><rect x="10.1" y="325" width="0.5" height="15.0" fill="rgb(217,56,13)" rx="2" ry="2" />
<text  x="13.10" y="335.5" ></text>
</g>
<g >
<title>filemap_add_folio (636,020 samples, 0.04%)</title><rect x="10.1" y="85" width="0.5" height="15.0" fill="rgb(207,9,2)" rx="2" ry="2" />
<text  x="13.10" y="95.5" ></text>
</g>
<g >
<title>invoke_syscall (193,021 samples, 0.01%)</title><rect x="1188.8" y="229" width="0.1" height="15.0" fill="rgb(209,18,4)" rx="2" ry="2" />
<text  x="1191.76" y="239.5" ></text>
</g>
<g >
<title>el0_svc (130,118 samples, 0.01%)</title><rect x="10.0" y="437" width="0.1" height="15.0" fill="rgb(244,183,43)" rx="2" ry="2" />
<text  x="13.00" y="447.5" ></text>
</g>
<g >
<title>vma_alloc_folio_noprof (652,458 samples, 0.04%)</title><rect x="429.8" y="197" width="0.5" height="15.0" fill="rgb(218,61,14)" rx="2" ry="2" />
<text  x="432.75" y="207.5" ></text>
</g>
<g >
<title>el0t_64_sync (652,458 samples, 0.04%)</title><rect x="429.8" y="389" width="0.5" height="15.0" fill="rgb(217,56,13)" rx="2" ry="2" />
<text  x="432.75" y="399.5" ></text>
</g>
<g >
<title>do_anonymous_page (652,458 samples, 0.04%)</title><rect x="429.8" y="245" width="0.5" height="15.0" fill="rgb(238,155,37)" rx="2" ry="2" />
<text  x="432.75" y="255.5" ></text>
</g>
<g >
<title>do_sync_mmap_readahead (636,020 samples, 0.04%)</title><rect x="10.1" y="117" width="0.5" height="15.0" fill="rgb(241,167,40)" rx="2" ry="2" />
<text  x="13.10" y="127.5" ></text>
</g>
<g >
<title>el0t_64_sync_handler (636,020 samples, 0.04%)</title><rect x="10.1" y="309" width="0.5" height="15.0" fill="rgb(211,32,7)" rx="2" ry="2" />
<text  x="13.10" y="319.5" ></text>
</g>
<g >
<title>run_all_requests (967,813,040 samples, 64.13%)</title><rect x="431.5" y="421" width="756.7" height="15.0" fill="rgb(249,203,48)" rx="2" ry="2" />
<text  x="434.51" y="431.5" >run_all_requests</text>
</g>
<g >
<title>handle_mm_fault (325,032 samples, 0.02%)</title><rect x="1189.7" y="325" width="0.3" height="15.0" fill="rgb(234,135,32)" rx="2" ry="2" />
<text  x="1192.74" y="335.5" ></text>
</g>
<g >
<title>__handle_mm_fault (652,458 samples, 0.04%)</title><rect x="429.8" y="277" width="0.5" height="15.0" fill="rgb(207,9,2)" rx="2" ry="2" />
<text  x="432.75" y="287.5" ></text>
</g>
<g >
<title>handle_mm_fault (652,458 samples, 0.04%)</title><rect x="429.8" y="293" width="0.5" height="15.0" fill="rgb(234,135,32)" rx="2" ry="2" />
<text  x="432.75" y="303.5" ></text>
</g>
<g >
<title>perf_iterate_sb.constprop.0 (272,307 samples, 0.02%)</title><rect x="1188.9" y="101" width="0.2" height="15.0" fill="rgb(229,113,27)" rx="2" ry="2" />
<text  x="1191.91" y="111.5" ></text>
</g>
<g >
<title>__default_morecore@GLIBC_2.17 (456,187 samples, 0.03%)</title><rect x="431.2" y="341" width="0.3" height="15.0" fill="rgb(230,118,28)" rx="2" ry="2" />
<text  x="434.15" y="351.5" ></text>
</g>
<g >
<title>el0t_64_sync_handler (272,307 samples, 0.02%)</title><rect x="1188.9" y="309" width="0.2" height="15.0" fill="rgb(211,32,7)" rx="2" ry="2" />
<text  x="1191.91" y="319.5" ></text>
</g>
<g >
<title>el0_da (325,032 samples, 0.02%)</title><rect x="1189.7" y="373" width="0.3" height="15.0" fill="rgb(217,55,13)" rx="2" ry="2" />
<text  x="1192.74" y="383.5" ></text>
</g>
<g >
<title>bprm_execve.part.0 (130,118 samples, 0.01%)</title><rect x="10.0" y="325" width="0.1" height="15.0" fill="rgb(228,106,25)" rx="2" ry="2" />
<text  x="13.00" y="335.5" ></text>
</g>
<g >
<title>folio_add_lru_vma (456,187 samples, 0.03%)</title><rect x="431.2" y="149" width="0.3" height="15.0" fill="rgb(252,216,51)" rx="2" ry="2" />
<text  x="434.15" y="159.5" ></text>
</g>
<g >
<title>[libc.so.6] (636,020 samples, 0.04%)</title><rect x="10.1" y="437" width="0.5" height="15.0" fill="rgb(223,84,20)" rx="2" ry="2" />
<text  x="13.10" y="447.5" ></text>
</g>
<g >
<title>__handle_mm_fault (456,187 samples, 0.03%)</title><rect x="431.2" y="197" width="0.3" height="15.0" fill="rgb(207,9,2)" rx="2" ry="2" />
<text  x="434.15" y="207.5" ></text>
</g>
<g >
<title>__alloc_frozen_pages_noprof (652,458 samples, 0.04%)</title><rect x="429.8" y="149" width="0.5" height="15.0" fill="rgb(228,109,26)" rx="2" ry="2" />
<text  x="432.75" y="159.5" ></text>
</g>
<g >
<title>el0t_64_irq (653,581 samples, 0.04%)</title><rect x="1187.3" y="373" width="0.5" height="15.0" fill="rgb(247,194,46)" rx="2" ry="2" />
<text  x="1190.27" y="383.5" ></text>
</g>
<g >
<title>el0t_64_sync (456,187 samples, 0.03%)</title><rect x="431.2" y="309" width="0.3" height="15.0" fill="rgb(217,56,13)" rx="2" ry="2" />
<text  x="434.15" y="319.5" ></text>
</g>
<g >
<title>ena_io_poll (653,581 samples, 0.04%)</title><rect x="1187.3" y="165" width="0.5" height="15.0" fill="rgb(215,47,11)" rx="2" ry="2" />
<text  x="1190.27" y="175.5" ></text>
</g>
<g >
<title>el0_svc (272,307 samples, 0.02%)</title><rect x="1188.9" y="293" width="0.2" height="15.0" fill="rgb(244,183,43)" rx="2" ry="2" />
<text  x="1191.91" y="303.5" ></text>
</g>
<g >
<title>handle_mm_fault (636,020 samples, 0.04%)</title><rect x="10.1" y="229" width="0.5" height="15.0" fill="rgb(234,135,32)" rx="2" ry="2" />
<text  x="13.10" y="239.5" ></text>
</g>
<g >
<title>_dl_load_cache_lookup (193,021 samples, 0.01%)</title><rect x="1188.8" y="357" width="0.1" height="15.0" fill="rgb(245,186,44)" rx="2" ry="2" />
<text  x="1191.76" y="367.5" ></text>
</g>
<g >
<title>do_mem_abort (325,032 samples, 0.02%)</title><rect x="1189.7" y="357" width="0.3" height="15.0" fill="rgb(249,206,49)" rx="2" ry="2" />
<text  x="1192.74" y="367.5" ></text>
</g>
<g >
<title>el0t_64_sync_handler (456,187 samples, 0.03%)</title><rect x="431.2" y="293" width="0.3" height="15.0" fill="rgb(211,32,7)" rx="2" ry="2" />
<text  x="434.15" y="303.5" ></text>
</g>
<g >
<title>folio_batch_move_lru (636,020 samples, 0.04%)</title><rect x="10.1" y="37" width="0.5" height="15.0" fill="rgb(207,10,2)" rx="2" ry="2" />
<text  x="13.10" y="47.5" ></text>
</g>
<g >
<title>____do_softirq (653,581 samples, 0.04%)</title><rect x="1187.3" y="245" width="0.5" height="15.0" fill="rgb(219,65,15)" rx="2" ry="2" />
<text  x="1190.27" y="255.5" ></text>
</g>
<g >
<title>vfs_open (193,021 samples, 0.01%)</title><rect x="1188.8" y="133" width="0.1" height="15.0" fill="rgb(232,125,29)" rx="2" ry="2" />
<text  x="1191.76" y="143.5" ></text>
</g>
<g >
<title>_dl_lookup_symbol_x (419,803 samples, 0.03%)</title><rect x="1189.4" y="405" width="0.3" height="15.0" fill="rgb(211,28,6)" rx="2" ry="2" />
<text  x="1192.41" y="415.5" ></text>
</g>
<g >
<title>__folio_batch_add_and_move (636,020 samples, 0.04%)</title><rect x="10.1" y="53" width="0.5" height="15.0" fill="rgb(254,227,54)" rx="2" ry="2" />
<text  x="13.10" y="63.5" ></text>
</g>
<g >
<title>el0_svc_common.constprop.0 (193,021 samples, 0.01%)</title><rect x="1188.8" y="245" width="0.1" height="15.0" fill="rgb(224,89,21)" rx="2" ry="2" />
<text  x="1191.76" y="255.5" ></text>
</g>
<g >
<title>__handle_mm_fault (325,032 samples, 0.02%)</title><rect x="1189.7" y="309" width="0.3" height="15.0" fill="rgb(207,9,2)" rx="2" ry="2" />
<text  x="1192.74" y="319.5" ></text>
</g>
<g >
<title>__el0_irq_handler_common (591,717 samples, 0.04%)</title><rect x="1187.8" y="357" width="0.4" height="15.0" fill="rgb(206,5,1)" rx="2" ry="2" />
<text  x="1190.78" y="367.5" ></text>
</g>
<g >
<title>__irq_exit_rcu (653,581 samples, 0.04%)</title><rect x="1187.3" y="293" width="0.5" height="15.0" fill="rgb(227,101,24)" rx="2" ry="2" />
<text  x="1190.27" y="303.5" ></text>
</g>
<g >
<title>do_fault (636,020 samples, 0.04%)</title><rect x="10.1" y="181" width="0.5" height="15.0" fill="rgb(248,200,47)" rx="2" ry="2" />
<text  x="13.10" y="191.5" ></text>
</g>
<g >
<title>vma_alloc_zeroed_movable_folio (652,458 samples, 0.04%)</title><rect x="429.8" y="213" width="0.5" height="15.0" fill="rgb(232,126,30)" rx="2" ry="2" />
<text  x="432.75" y="223.5" ></text>
</g>
<g >
<title>el0t_64_sync_handler (325,032 samples, 0.02%)</title><rect x="1189.7" y="389" width="0.3" height="15.0" fill="rgb(211,32,7)" rx="2" ry="2" />
<text  x="1192.74" y="399.5" ></text>
</g>
<g >
<title>vm_mmap_pgoff (272,307 samples, 0.02%)</title><rect x="1188.9" y="197" width="0.2" height="15.0" fill="rgb(237,150,35)" rx="2" ry="2" />
<text  x="1191.91" y="207.5" ></text>
</g>
<g >
<title>load_elf_binary (130,118 samples, 0.01%)</title><rect x="10.0" y="293" width="0.1" height="15.0" fill="rgb(223,83,20)" rx="2" ry="2" />
<text  x="13.00" y="303.5" ></text>
</g>
<g >
<title>__memset_zva64 (652,458 samples, 0.04%)</title><rect x="429.8" y="405" width="0.5" height="15.0" fill="rgb(205,1,0)" rx="2" ry="2" />
<text  x="432.75" y="415.5" ></text>
</g>
<g >
<title>_dl_sysdep_start (1,586,322 samples, 0.11%)</title><rect x="1188.8" y="453" width="1.2" height="15.0" fill="rgb(234,137,32)" rx="2" ry="2" />
<text  x="1191.76" y="463.5" ></text>
</g>
<g >
<title>irq_exit_rcu (655,041 samples, 0.04%)</title><rect x="430.3" y="341" width="0.5" height="15.0" fill="rgb(254,227,54)" rx="2" ry="2" />
<text  x="433.26" y="351.5" ></text>
</g>
<g >
<title>call_on_irq_stack (655,041 samples, 0.04%)</title><rect x="430.3" y="293" width="0.5" height="15.0" fill="rgb(239,156,37)" rx="2" ry="2" />
<text  x="433.26" y="303.5" ></text>
</g>
<g >
<title>malloc (456,187 samples, 0.03%)</title><rect x="431.2" y="389" width="0.3" height="15.0" fill="rgb(230,119,28)" rx="2" ry="2" />
<text  x="434.15" y="399.5" ></text>
</g>
<g >
<title>__handle_mm_fault (636,020 samples, 0.04%)</title><rect x="10.1" y="213" width="0.5" height="15.0" fill="rgb(207,9,2)" rx="2" ry="2" />
<text  x="13.10" y="223.5" ></text>
</g>
<g >
<title>[libstdc++.so.6.0.33] (636,020 samples, 0.04%)</title><rect x="10.1" y="341" width="0.5" height="15.0" fill="rgb(216,51,12)" rx="2" ry="2" />
<text  x="13.10" y="351.5" ></text>
</g>
<g >
<title>__sbrk (456,187 samples, 0.03%)</title><rect x="431.2" y="325" width="0.3" height="15.0" fill="rgb(232,126,30)" rx="2" ry="2" />
<text  x="434.15" y="335.5" ></text>
</g>
<g >
<title>_int_malloc (456,187 samples, 0.03%)</title><rect x="431.2" y="373" width="0.3" height="15.0" fill="rgb(215,47,11)" rx="2" ry="2" />
<text  x="434.15" y="383.5" ></text>
</g>
<g >
<title>summarize_heatmap (655,789 samples, 0.04%)</title><rect x="1188.2" y="421" width="0.6" height="15.0" fill="rgb(206,7,1)" rx="2" ry="2" />
<text  x="1191.24" y="431.5" ></text>
</g>
<g >
<title>build_open_cells (516,595 samples, 0.03%)</title><rect x="432.0" y="405" width="0.4" height="15.0" fill="rgb(241,168,40)" rx="2" ry="2" />
<text  x="435.02" y="415.5" ></text>
</g>
<g >
<title>handle_softirqs (653,581 samples, 0.04%)</title><rect x="1187.3" y="213" width="0.5" height="15.0" fill="rgb(238,156,37)" rx="2" ry="2" />
<text  x="1190.27" y="223.5" ></text>
</g>
<g >
<title>el0t_64_sync_handler (130,118 samples, 0.01%)</title><rect x="10.0" y="453" width="0.1" height="15.0" fill="rgb(211,32,7)" rx="2" ry="2" />
<text  x="13.00" y="463.5" ></text>
</g>
<g >
<title>alloc_anon_folio (652,458 samples, 0.04%)</title><rect x="429.8" y="229" width="0.5" height="15.0" fill="rgb(223,86,20)" rx="2" ry="2" />
<text  x="432.75" y="239.5" ></text>
</g>
<g >
<title>el0t_64_sync (193,021 samples, 0.01%)</title><rect x="1188.8" y="309" width="0.1" height="15.0" fill="rgb(217,56,13)" rx="2" ry="2" />
<text  x="1191.76" y="319.5" ></text>
</g>
<g >
<title>do_translation_fault (456,187 samples, 0.03%)</title><rect x="431.2" y="245" width="0.3" height="15.0" fill="rgb(239,158,37)" rx="2" ry="2" />
<text  x="434.15" y="255.5" ></text>
</g>
<g >
<title>exec_binprm (130,118 samples, 0.01%)</title><rect x="10.0" y="309" width="0.1" height="15.0" fill="rgb(244,180,43)" rx="2" ry="2" />
<text  x="13.00" y="319.5" ></text>
</g>
<g >
<title>__run_exit_handlers (636,020 samples, 0.04%)</title><rect x="10.1" y="421" width="0.5" height="15.0" fill="rgb(216,51,12)" rx="2" ry="2" />
<text  x="13.10" y="431.5" ></text>
</g>
<g >
<title>net_rx_action (653,581 samples, 0.04%)</title><rect x="1187.3" y="197" width="0.5" height="15.0" fill="rgb(240,164,39)" rx="2" ry="2" />
<text  x="1190.27" y="207.5" ></text>
</g>
<g >
<title>do_wp_page (325,032 samples, 0.02%)</title><rect x="1189.7" y="277" width="0.3" height="15.0" fill="rgb(212,36,8)" rx="2" ry="2" />
<text  x="1192.74" y="287.5" ></text>
</g>
<g >
<title>openaux (465,328 samples, 0.03%)</title><rect x="1188.8" y="389" width="0.3" height="15.0" fill="rgb(252,217,52)" rx="2" ry="2" />
<text  x="1191.76" y="399.5" ></text>
</g>
<g >
<title>do_filp_open (193,021 samples, 0.01%)</title><rect x="1188.8" y="181" width="0.1" height="15.0" fill="rgb(211,28,6)" rx="2" ry="2" />
<text  x="1191.76" y="191.5" ></text>
</g>
<g >
<title>ena_rx_skb (653,581 samples, 0.04%)</title><rect x="1187.3" y="133" width="0.5" height="15.0" fill="rgb(217,58,14)" rx="2" ry="2" />
<text  x="1190.27" y="143.5" ></text>
</g>
<g >
<title>handle_pte_fault (456,187 samples, 0.03%)</title><rect x="431.2" y="181" width="0.3" height="15.0" fill="rgb(217,57,13)" rx="2" ry="2" />
<text  x="434.15" y="191.5" ></text>
</g>
<g >
<title>invoke_syscall (130,118 samples, 0.01%)</title><rect x="10.0" y="389" width="0.1" height="15.0" fill="rgb(209,18,4)" rx="2" ry="2" />
<text  x="13.00" y="399.5" ></text>
</g>
<g >
<title>do_dentry_open (193,021 samples, 0.01%)</title><rect x="1188.8" y="117" width="0.1" height="15.0" fill="rgb(243,175,41)" rx="2" ry="2" />
<text  x="1191.76" y="127.5" ></text>
</g>
<g >
<title>el0_interrupt (655,041 samples, 0.04%)</title><rect x="430.3" y="357" width="0.5" height="15.0" fill="rgb(247,195,46)" rx="2" ry="2" />
<text  x="433.26" y="367.5" ></text>
</g>
</g>
</svg>
